HIERARCHY
ROOT Hips
{
	OFFSET 0.00000 0.00000 0.00000
	CHANNELS 6 Xposition Yposition Zposition Yrotation Zrotation Xrotation 
	JOINT Lumbar
	{
		OFFSET 0 0 0
		CHANNELS 3 Zrotation Xrotation Yrotation
		JOINT Neck
		{
			OFFSET 0.00 0.2701 0.00
			CHANNELS 3 Zrotation Xrotation Yrotation
			End Site
			{
				OFFSET 0.00 0.1379 0.00
			}
		}
		JOINT RightShoulder
		{
			OFFSET 0.0119 0.2289 0.1181
			CHANNELS 3 Zrotation Xrotation Yrotation
			JOINT RightElbow
			{
				OFFSET 0.00 -0.1475 0.00
				CHANNELS 2 Zrotation Yrotation
				JOINT RightWrist
				{
					OFFSET 0.00 -0.1605 0.00
					CHANNELS 2 Zrotation Xrotation
					End Site
					{
						OFFSET 0.0040 -0.1068 0.0006
					}
				}
			}
		}
		JOINT LeftShoulder
		{
			OFFSET 0.0119 0.2289 -0.1181
			CHANNELS 3 Zrotation Xrotation Yrotation
			JOINT LeftElbow
			{
				OFFSET 0.00 -0.1475 0.00
				CHANNELS 2 Zrotation Yrotation
				JOINT LeftWrist
				{
					OFFSET 0.00 -0.1605 0.00
					CHANNELS 2 Zrotation Xrotation
					End Site
					{
						OFFSET 0.0040 -0.1068 -0.0006
					}
				}
			}
		}
	}
	JOINT RightHip
	{
		OFFSET 0.0316 -0.0424 0.0458
		CHANNELS 3 Zrotation Xrotation Yrotation
		JOINT RightKnee
		{
			OFFSET 0.00 -0.2438 0.00
			CHANNELS 1 Zrotation
			JOINT RightAnkle
			{
				OFFSET 0.00 -0.2449 0.00
				CHANNELS 3 Zrotation Xrotation Yrotation
				End Site
				{
					OFFSET 0.1237 -0.0542 0.0051
				}
			}
		}
	}
	JOINT LeftHip
	{
		OFFSET 0.0316 -0.0424 -0.0458
		CHANNELS 3 Zrotation Xrotation Yrotation
		JOINT LeftKnee
		{
			OFFSET 0.00 -0.2438 0.00
			CHANNELS 1 Zrotation
			JOINT LeftAnkle
			{
				OFFSET 0.00 -0.2449 0.00
				CHANNELS 3 Zrotation Xrotation Yrotation
				End Site
				{
					OFFSET 0.1237 -0.0542 -0.0051
				}
			}
		}
	}
}
MOTION
Frames: 19
Frame Time: 0.02
0.841 -0.01025 0.13205 890.56738 -39.17078 0.93206 36.79726 4.5052 34.60482 6.34326 3.57113 -2.11994 47.17769 -17.99867 -66.76638 10.06142 77.09463 -13.53858 -1.69065 -54.76727 3.83104 50.80824 52.2589 -87.58097 1.34428 -2.65863 42.86359 -1.70347 -15.98207 -45.61568 -6.47774 -2.21959 -3.3124 60.61092 -6.90633 9.94411 -3.11743 -5.96103 4.42237 4.28235
0.82565 -0.01317 0.12663 890.93535 -38.63792 1.30625 36.79133 4.07639 34.68368 6.21443 3.46687 -2.11994 47.15453 -17.313 -66.17194 10.12824 77.05362 -13.76443 -1.64864 -54.56084 3.88676 52.39533 51.11166 -84.37325 -0.53926 -2.63672 42.767 -2.24953 -15.06472 -49.01972 -6.90409 -2.06732 -3.25896 61.01977 -6.75309 11.33071 -6.82239 -6.23942 3.93304 4.06872
0.80972 -0.0165 0.12114 891.1769 -37.93656 1.61387 36.77217 3.58658 34.64185 6.12343 3.47155 -2.11994 47.15737 -16.57427 -66.65213 9.95493 77.61571 -13.97428 -1.80662 -54.26071 4.12652 53.47961 49.94285 -80.57652 -2.77919 -2.60978 42.94967 -2.85331 -13.82716 -53.07813 -7.44317 -1.87507 -3.19103 62.35486 -5.9729 12.97433 -14.38605 -6.77275 3.23355 3.77259
0.79413 -0.01955 0.11569 891.45666 -37.30982 1.93691 36.74832 3.13979 34.63582 6.01617 3.42856 -2.11994 47.16607 -15.85006 -66.72789 9.87722 77.94766 -14.18742 -1.88754 -53.97396 4.27025 54.66847 48.81435 -77.11932 -4.83363 -2.58569 43.05992 -3.42334 -12.73846 -56.82587 -7.91852 -1.71036 -3.13364 63.16218 -5.49408 14.43126 -19.98189 -7.16137 2.65446 3.52399
0.77822 -0.02303 0.1102 891.81515 -36.687 2.32275 36.76964 2.62777 34.70922 5.90283 3.38049 -2.11994 47.09533 -15.16199 -66.43289 9.86036 78.08089 -14.42325 -1.90489 -53.81755 4.47254 56.38514 47.55327 -73.38141 -6.98321 -2.56362 42.94209 -4.02703 -11.63375 -60.66299 -8.44711 -1.50546 -3.0593 64.39201 -4.95561 16.16606 -26.45789 -7.66497 1.97288 3.2338
0.76284 -0.02569 0.10479 891.98319 -36.02017 2.56092 36.69555 2.23771 34.58434 5.81394 3.36705 -2.11994 47.19633 -14.38658 -67.15652 9.66117 78.76484 -14.60755 -2.10036 -53.35732 4.60273 56.86621 46.56617 -70.10223 -9.00374 -2.53525 43.36234 -4.57292 -10.49173 -64.43268 -8.89117 -1.37525 -3.01702 64.97513 -4.38681 17.39136 -32.02589 -7.99405 1.45265 3.00987
0.74904 -0.02609 0.09965 891.62485 -35.24243 2.42036 36.33865 2.19483 33.99822 5.75866 3.43226 -2.11994 47.78718 -13.3977 -70.61918 8.98128 80.9665 -14.63065 -2.78659 -52.16783 4.37886 54.25324 46.32155 -67.94449 -10.79901 -2.48047 45.22811 -4.95347 -9.26824 -68.14332 -9.07734 -1.4576 -3.06521 63.51711 -3.91143 17.12552 -34.14945 -7.75646 1.44466 2.99491
0.7358 -0.02563 0.0946 891.08548 -34.43229 2.1317 35.8901 2.2773 33.20762 5.73118 3.52631 -2.11994 48.54699 -12.32145 -75.04032 8.13173 83.67989 -14.60504 -3.63816 -50.65719 4.09144 50.38701 46.3565 -66.30857 -12.41959 -2.42036 47.61789 -5.27228 -8.0287 -71.70397 -9.17415 -1.61673 -3.14626 61.38612 -3.42193 16.34355 -35.22938 -7.33923 1.60339 3.04838
0.72234 -0.02549 0.08951 890.64895 -33.6571 1.90203 35.49797 2.30586 32.47352 5.7072 3.60078 -2.11994 49.21579 -11.2755 -78.90218 7.38269 86.06602 -14.61623 -4.38337 -49.24023 3.90656 46.95915 46.27748 -64.62578 -13.97429 -2.36904 49.75306 -5.61347 -6.83284 -75.15056 -9.30949 -1.74364 -3.21363 59.58474 -2.92188 15.81494 -36.78462 -7.01969 1.67547 3.06659
0.70874 -0.02567 0.08444 890.11928 -32.79002 1.70325 35.04301 2.32094 31.88635 5.61673 3.70719 -2.11994 49.94475 -10.26461 -83.31918 6.52732 88.86618 -14.56727 -5.26501 -48.05146 3.4292 44.03678 46.14575 -62.14982 -16.13443 -2.29207 51.9789 -5.98002 -5.4709 -79.41031 -9.45664 -1.85981 -3.27613 57.71152 -2.47059 15.21844 -38.46506 -6.64148 1.78574 3.09933
0.69558 -0.02499 0.07933 889.74465 -32.10961 1.4082 34.69736 2.39272 30.94937 5.67046 3.75152 -2.11994 50.5891 -9.16402 -86.79857 5.85529 90.92571 -14.62947 -5.9019 -46.29882 3.52868 39.80887 46.18635 -61.41996 -17.0124 -2.26568 54.12236 -6.27917 -4.45693 -81.90598 -9.55763 -2.01464 -3.3556 55.82031 -1.92393 14.63398 -39.59251 -6.33913 1.85935 3.11935
0.68351 -0.02206 0.07407 889.82285 -31.94644 0.86327 34.67603 2.60749 29.07099 6.11789 3.62536 -2.11994 50.95024 -7.80955 -87.40748 5.74026 90.74339 -15.0341 -5.79818 -43.185 5.36228 31.95299 46.66981 -65.71139 -14.17454 -2.39386 56.03315 -6.39887 -4.39311 -79.79858 -9.54252 -2.27912 -3.484 54.00427 -1.10828 14.23622 -39.38065 -6.29222 1.78739 3.08622
0.67188 -0.01831 0.06876 890.06775 -31.97388 0.23055 34.76807 2.8723 26.85402 6.7082 3.43391 -2.11994 51.22127 -6.37379 -87.04284 5.81525 89.80783 -15.54805 -5.44582 -39.49462 7.75411 22.88893 47.31024 -71.68698 -10.08947 -2.57052 57.8197 -6.45357 -4.68313 -75.88328 -9.48532 -2.57615 -3.62659 52.19581 -0.20223 13.86059 -38.64162 -6.32611 1.67469 3.03869
0.66006 -0.015 0.06346 890.24965 -31.91938 -0.34814 34.80802 3.10305 24.80814 7.23222 3.26625 -2.11994 51.53958 -4.9929 -87.14981 5.7981 89.2618 -15.99639 -5.2225 -35.99021 9.80696 14.59883 47.85612 -76.67555 -6.71904 -2.71614 59.57963 -6.54406 -4.82389 -72.62934 -9.4539 -2.84411 -3.75606 50.40587 0.65367 13.45764 -38.16881 -6.32049 1.58375 2.99892
0.64823 -0.01139 0.05819 890.37077 -31.84534 -0.99114 34.84654 3.38515 22.67826 7.76565 3.1235 -2.11994 51.83943 -3.53097 -87.16911 5.79844 88.53718 -16.50981 -4.93807 -32.7905 12.2179 5.32204 48.51107 -82.60447 -2.72628 -2.89986 61.70415 -6.60853 -4.92014 -70.01095 -9.39188 -3.17447 -3.91462 48.50189 1.54983 13.11579 -37.54933 -6.32084 1.48395 2.95595
0.63651 -0.00823 0.05285 890.66108 -31.85587 -1.51981 34.91693 3.5715 20.65078 8.30965 2.91422 -2.11994 52.15116 -2.2225 -87.12547 5.81081 87.99578 -16.91489 -4.71879 -28.82983 14.01623 -2.17874 48.97082 -86.98463 0.27386 -3.01552 63.03874 -6.70942 -5.18712 -65.68675 -9.38409 -3.38228 -4.01582 46.84388 2.38196 12.65103 -37.12355 -6.32987 1.39182 2.91582
0.62506 -0.00643 0.04736 891.37316 -32.06892 -1.70476 35.04117 3.47321 18.94646 8.87619 2.5269 -2.11994 52.54118 -1.33376 -87.15313 5.80323 88.16802 -16.98729 -4.7474 -22.86379 13.98744 -4.39553 48.87066 -86.52766 0.14107 -2.93371 62.16819 -6.95333 -5.89623 -56.70661 -9.54096 -3.2377 -3.95248 45.88543 3.02721 11.91198 -37.36251 -6.34771 1.32116 2.88263
0.61369 -0.00514 0.04178 892.25118 -32.35742 -1.77241 35.19492 3.27805 17.36641 9.44262 2.07715 -2.11994 52.94016 -0.60676 -87.14399 5.80442 88.54369 -16.94727 -4.8482 -16.16815 13.32335 -4.79114 48.5672 -84.47679 -1.02052 -2.78129 60.51399 -7.2312 -6.75634 -46.14775 -9.75266 -2.96959 -3.83132 45.17534 3.60332 11.04026 -37.82202 -6.37207 1.26039 2.85319
0.60222 -0.0037 0.03622 893.05768 -32.60172 -1.89689 35.34023 3.1314 15.75759 9.99083 1.66197 -2.11994 53.31997 0.17759 -87.14327 5.80544 88.80815 -16.96485 -4.91006 -9.82989 12.94919 -6.07129 48.33988 -83.2533 -1.6523 -2.65974 59.25206 -7.47677 -7.50734 -36.56358 -9.93761 -2.76135 -3.73814 44.33784 4.20202 10.18262 -38.18134 -6.39059 1.20089 2.82468
